<?xml version="1.0" encoding="utf-8"?>
<!-- Generator: Adobe Illustrator 26.5.0, SVG Export Plug-In . SVG Version: 6.00 Build 0)  -->
<svg version="1.1" id="Laag_1" xmlns="http://www.w3.org/2000/svg" xmlns:xlink="http://www.w3.org/1999/xlink" x="0px" y="0px"
	 viewBox="0 0 106.1 115" style="enable-background:new 0 0 106.1 115;" xml:space="preserve">
<style type="text/css">
	.st0{fill:#031037;}
	.st1{fill:#0081FF;}
</style>
<g>
	<path class="st0" d="M-52.5-188.8l0.3-62.6c0-3.3,2.7-6,6-6l62.6,0.3c3.3,0,6,2.7,6,6l-0.3,62.6c0,3.3-2.7,6-6,6l-62.6-0.3
		C-49.8-182.8-52.5-185.5-52.5-188.8z"/>
	<path class="st0" d="M36.2-256.9c2,0,3.9,0.5,5.7,1.2c-9.1-4.3-16.3-11.6-20.5-20.7c0.8,1.7,1.2,3.6,1.2,5.7
		c0,7.6-6.2,13.7-13.8,13.6l13.6,13.8C22.4-250.8,28.6-256.9,36.2-256.9z"/>
	<ellipse class="st0" cx="60" cy="-294" rx="42.5" ry="42.4"/>
</g>
<g>
	<g>
		<path class="st0" d="M36.2,30.5h2.3l3,8.6l3-8.6h2.3l-4.2,11.4h-2.2L36.2,30.5L36.2,30.5z"/>
		<path class="st0" d="M57.8,34.6v7.4h-2.2v-1.9c-0.5,1.2-2,2-3.7,2c-2.3,0-3.9-1.4-3.9-3.4c0-2.2,1.7-3.6,4.4-3.6h2.4
			c0.5,0,0.8-0.3,0.8-0.7c0-1.4-1-2.3-2.8-2.3c-1.6,0-2.7,1-2.8,2.1h-2c0.2-2.2,2.2-3.9,4.9-3.9C55.8,30.3,57.8,32,57.8,34.6
			L57.8,34.6z M55.6,36.9v-0.3h-2.9c-1.5,0-2.5,0.8-2.5,2c0,1,0.9,1.7,2.1,1.7C54.4,40.4,55.6,39,55.6,36.9z"/>
		<path class="st0" d="M60.8,30.5H63v2c0.6-1.4,2-2.2,3.7-2.2c2.6,0,4.3,1.9,4.3,4.6v7h-2.2v-6.6c0-1.8-1.1-3-2.7-3
			c-1.8,0-3.1,1.5-3.1,3.4v6.2h-2.2V30.5L60.8,30.5z"/>
	</g>
	<g>
		<path class="st0" d="M80,54.2c-1.2-1.1-1.9-2.7-2-4.6h-7.1c0.1,1.5,0.3,2.9,0.7,4.2c0.7,2.3,2,4.2,3.7,5.7
			c1.6,1.5,3.6,2.5,5.9,2.9c1,0.2,2,0.3,3,0.3h2.3v-7.1h-2.3C82.5,55.7,81,55.2,80,54.2"/>
		<path class="st0" d="M66.4,57.2c-8.6,0-19.7,1.9-16.8,27.1h7.8c-0.3-3.3-0.5-6-0.5-8.6c0-7.5,1.9-11.9,9.5-11.5l1.6,0.1v-7
			C67.3,57.2,66.5,57.2,66.4,57.2"/>
		<path class="st0" d="M86.4,76.4c-1.4,0.7-3.1,1.1-4.3,1.1c-2.2,0-3.4-0.7-3.9-3.4c-0.3-2-0.5-6.1-0.1-9.8h-7.4
			c-0.4,4.4-0.4,7.1,0.2,11c0.9,6.1,4.6,9.4,10.7,9.4c2.2,0,4.2-0.5,6.9-1.9L86.4,76.4L86.4,76.4z"/>
		<path class="st0" d="M34,78.2c1.1-2.9,2-5.6,3-8.5c1.4-4.1,2.8-8.4,3.8-12.4H49c-1.4,4.5-3,9-4.8,13.6c-1.7,4.6-3.4,9.1-5.4,13.4
			H28.7c-2-4.4-3.7-8.9-5.4-13.4c-1.7-4.6-3.3-9.1-4.8-13.6h8.2c1.1,3.9,2.5,8.3,3.8,12.4c1,3,1.9,5.7,3,8.5H34L34,78.2z"/>
	</g>
</g>
<g>
	<path class="st1" d="M36.7-241h33.1v10.2H48.6v7.8h16.6v10.2H48.6v8.6h21.9v10.2H36.7V-241z"/>
	<path class="st1" d="M76.5-241h16.6c12.8,0,24.6,7,24.6,23.5c0,16.4-11.8,23.5-24.6,23.5H76.5V-241z M91.7-204.2
		c7.1,0,14-3,14-13.3c0-10.3-6.9-13.3-14-13.3h-3.3v26.6H91.7z"/>
	<path class="st1" d="M122.8-211.9V-241h11.1v29c0,5.9,3.4,8.2,8.1,8.2c4.6,0,8.1-2.3,8.1-8.2v-29h11v29.1
		c0,12.5-7.8,18.4-19.1,18.4S122.8-199.4,122.8-211.9z"/>
</g>
<g>
	<g>
		<path class="st0" d="M36.2-182h19.5c8.4,0,15.2,4.2,15.2,12.1c0,4.4-2.6,7.8-5.2,9.3c4.1,1.7,7.7,5.5,7.7,11.5
			C73.4-140,66-135,56-135H36.2V-182z M54.7-164.7c3.8,0,5.3-1.6,5.3-4c0-2.4-1.5-4-5.6-4h-6.5v8.1H54.7z M55.1-145.2
			c5,0,7.1-1.6,7.1-4.7s-2-4.8-7.1-4.8h-7.2v9.5H55.1z"/>
		<path class="st0" d="M77.3-158.5c0-13.8,10.4-24.1,24.5-24.1c14,0,24.3,10.2,24.3,24.1s-10.3,24.1-24.3,24.1
			C87.7-134.4,77.3-144.6,77.3-158.5z M101.8-144.6c7.3,0,12.4-5.9,12.4-13.8s-5.2-13.8-12.4-13.8c-7.3,0-12.5,5.9-12.5,13.8
			S94.5-144.6,101.8-144.6z"/>
		<path class="st0" d="M139.6-158.4l-14-23.7H138l7.9,13.2l7.9-13.2h12.4l-14,23.7l14,23.3h-12.6l-7.6-12.8l-7.6,12.8h-12.7
			L139.6-158.4z"/>
	</g>
</g>
</svg>
