<svg id="Layer_1" data-name="Layer 1" xmlns="http://www.w3.org/2000/svg" xmlns:xlink="http://www.w3.org/1999/xlink" viewBox="0 0 283.46 177.07"><defs><style>.cls-1{fill:none;}.cls-2{clip-path:url(#clip-path);}.cls-3{fill:#16284a;}.cls-4{fill:#5dfc71;}</style><clipPath id="clip-path"><rect class="cls-1" x="1.42" y="0.89" width="280.63" height="175.3"/></clipPath></defs><title>EDUBOX RGB</title><g class="cls-2"><path class="cls-3" d="M87.56,157.93l.11,8.12h6.38a5.29,5.29,0,0,0,3.58-1,4.15,4.15,0,0,0,1.08-3.22,3.74,3.74,0,0,0-1.08-3,5.53,5.53,0,0,0-3.58-.92Zm.11-15.49-.11,6.9h6.49a4,4,0,0,0,2.82-.9,3.78,3.78,0,0,0,0-5.1,4,4,0,0,0-2.82-.9Zm16.1,10.6A9.76,9.76,0,0,1,112,163.23a9.58,9.58,0,0,1-1.45,5.33,12.07,12.07,0,0,1-3.8,3.69,17.78,17.78,0,0,1-5.3,2.16,25.55,25.55,0,0,1-6,.7H75a.54.54,0,0,1-.38-.16.37.37,0,0,1-.14-.37l.26-19.68-.26-21a.4.4,0,0,1,.14-.38.51.51,0,0,1,.38-.17H95a31.7,31.7,0,0,1,6.09.55,14.64,14.64,0,0,1,4.87,1.81A9.14,9.14,0,0,1,109.2,139a9.76,9.76,0,0,1,1.18,5,8.9,8.9,0,0,1-1.7,5.76,11.21,11.21,0,0,1-4.91,3.3"/><path class="cls-3" d="M127.18,154.41a20.41,20.41,0,0,0,.57,5,11.28,11.28,0,0,0,1.69,3.81,7.67,7.67,0,0,0,2.82,2.43,8.63,8.63,0,0,0,3.92.86,8.47,8.47,0,0,0,3.89-.85,7.27,7.27,0,0,0,2.76-2.41,11.19,11.19,0,0,0,1.63-3.82,21.49,21.49,0,0,0,.54-5,22.45,22.45,0,0,0-.54-5.11,11.92,11.92,0,0,0-1.63-4,7.56,7.56,0,0,0-2.78-2.52,8.45,8.45,0,0,0-4-.88,8.57,8.57,0,0,0-3.94.85,7.49,7.49,0,0,0-2.77,2.45,11.32,11.32,0,0,0-1.63,3.92,23.25,23.25,0,0,0-.54,5.24m31.42,0A23,23,0,0,1,157,163a20.38,20.38,0,0,1-4.53,6.92,20.92,20.92,0,0,1-7.1,4.57,26.83,26.83,0,0,1-18.58,0A20.81,20.81,0,0,1,119.7,170a20.05,20.05,0,0,1-4.51-6.9,23.07,23.07,0,0,1-1.6-8.66,24.85,24.85,0,0,1,1.58-9,19.85,19.85,0,0,1,4.5-7,20.2,20.2,0,0,1,7.09-4.5,25.79,25.79,0,0,1,9.3-1.6,26.1,26.1,0,0,1,9.23,1.56,20.13,20.13,0,0,1,7.11,4.41,19.66,19.66,0,0,1,4.57,7,24.55,24.55,0,0,1,1.63,9.17"/><path class="cls-3" d="M196.22,175.11H182.51a.9.9,0,0,1-.45-.13.92.92,0,0,1-.34-.34l-6.35-11.35-6.2,11.35a.9.9,0,0,1-.33.34,1,1,0,0,1-.45.13H155a.29.29,0,0,1-.26-.16.26.26,0,0,1,0-.31l13-20.7-12.4-20.12a.29.29,0,0,1,0-.3.27.27,0,0,1,.27-.16h13.72a.86.86,0,0,1,.45.13.81.81,0,0,1,.33.33l5.71,9.87,5.65-9.87a1,1,0,0,1,.33-.33.87.87,0,0,1,.46-.13h13.36a.27.27,0,0,1,.26.16.24.24,0,0,1,0,.3l-12.52,19.66,13.13,21.16a.31.31,0,0,1,0,.31.29.29,0,0,1-.28.16"/></g><rect class="cls-3" x="1.57" y="66.6" width="61.88" height="61.88" transform="translate(-65.19 129.56) rotate(-89.71)"/><g class="cls-2"><path class="cls-3" d="M75,66.89a11.33,11.33,0,0,1,4.69,1,35.4,35.4,0,0,1-17-17.17,11.23,11.23,0,0,1,1,4.7A11.38,11.38,0,0,1,52.21,66.77l11.38.06L63.53,78.2A11.37,11.37,0,0,1,75,66.89"/><path class="cls-3" d="M129.93,36.26A35.24,35.24,0,1,1,94.87.88a35.22,35.22,0,0,1,35.06,35.38"/></g><path class="cls-4" d="M106.3,123.4H74.89a.56.56,0,0,1-.38-.16.4.4,0,0,1-.14-.36l.26-19.58-.26-21a.46.46,0,0,1,.14-.38.57.57,0,0,1,.38-.17h30.94a.51.51,0,0,1,.37.17.61.61,0,0,1,.16.38v8.14a.56.56,0,0,1-.16.37.49.49,0,0,1-.37.18H87.56l-.12,6.07H103.8a.48.48,0,0,1,.36.16.5.5,0,0,1,.16.36v8.17a.5.5,0,0,1-.16.36.48.48,0,0,1-.36.16H87.44l.12,7.87H106.3a.54.54,0,0,1,.36.16.5.5,0,0,1,.16.37v8.22a.48.48,0,0,1-.16.36A.5.5,0,0,1,106.3,123.4Z"/><path class="cls-4" d="M126,123.4H109.79a.54.54,0,0,1-.38-.16.46.46,0,0,1-.17-.36l.23-19.7-.23-20.89a.53.53,0,0,1,.17-.38.55.55,0,0,1,.38-.17h16.12a34.82,34.82,0,0,1,8.86,1.12,20.73,20.73,0,0,1,7.57,3.64,18.38,18.38,0,0,1,5.26,6.64,22.86,22.86,0,0,1,2,10,21.64,21.64,0,0,1-1.92,9.62,16.77,16.77,0,0,1-5.15,6.24A20.74,20.74,0,0,1,135,122.4,39.12,39.12,0,0,1,126,123.4Zm-3.63-20.48c0,4,0,6.82.08,8.56s.09,2.61.09,2.65h3.92a9.38,9.38,0,0,0,7-2.54c1.67-1.69,2.5-4.54,2.5-8.53a18.93,18.93,0,0,0-.71-5.5,10.24,10.24,0,0,0-2-3.76,7.66,7.66,0,0,0-3.09-2.14,11.33,11.33,0,0,0-4-.68h-3.69s0,1-.09,3.08S122.4,99.05,122.4,102.92Z"/><path class="cls-4" d="M189.42,108.24q0,8-4.59,12.11t-13.59,4.13a27.87,27.87,0,0,1-8-1,16.05,16.05,0,0,1-5.89-3.06,12.83,12.83,0,0,1-3.6-5.09,18.78,18.78,0,0,1-1.23-7V98.76l-.09-16.47a.46.46,0,0,1,.14-.38.57.57,0,0,1,.38-.17h12.49a.51.51,0,0,1,.37.17.61.61,0,0,1,.16.38l-.18,16.13v9.7q0,3.48,1.41,4.92a5.38,5.38,0,0,0,4,1.44,6.68,6.68,0,0,0,4.67-1.44q1.58-1.44,1.57-4.92V98.71l-.11-16.42a.56.56,0,0,1,.16-.38.48.48,0,0,1,.36-.17H189a.51.51,0,0,1,.36.17.56.56,0,0,1,.16.38l-.12,16.47Z"/></svg>