<?xml version="1.0" encoding="UTF-8"?><svg id="Laag_1" xmlns="http://www.w3.org/2000/svg" viewBox="0 0 479.28 390.28"><defs><style>.cls-1{fill:#0081ff;}.cls-2{fill:#031037;}</style></defs><g><rect class="cls-2" x="134.26" y="165.06" width="74.62" height="74.62" rx="6" ry="6" transform="translate(-31.66 372.92) rotate(-89.71)"/><path class="cls-2" d="M222.77,165.41c2.02,0,3.94,.46,5.66,1.25-9.05-4.26-16.34-11.62-20.51-20.7,.78,1.73,1.21,3.65,1.2,5.67-.04,7.57-6.21,13.67-13.79,13.64l13.65,13.78c.04-7.57,6.21-13.67,13.79-13.64Z"/><ellipse class="cls-2" cx="246.55" cy="128.27" rx="42.49" ry="42.44"/></g><g><path class="cls-1" d="M223.25,181.29h33.05v10.19h-21.12v7.78h16.63v10.19h-16.63v8.58h21.86v10.19h-33.79v-46.93Z"/><path class="cls-1" d="M263.08,181.29h16.63c12.81,0,24.61,7.04,24.61,23.47s-11.8,23.47-24.61,23.47h-16.63v-46.93Zm15.22,36.74c7.11,0,14.01-3.02,14.01-13.28s-6.91-13.28-14.01-13.28h-3.29v26.55h3.29Z"/><path class="cls-1" d="M309.41,210.39v-29.1h11.06v28.96c0,5.9,3.42,8.18,8.11,8.18s8.11-2.28,8.11-8.18v-28.96h11v29.1c0,12.54-7.84,18.37-19.11,18.37s-19.18-5.83-19.18-18.37Z"/></g><g><path class="cls-2" d="M222.76,240.27h19.49c8.4,0,15.19,4.17,15.19,12.1,0,4.44-2.62,7.79-5.24,9.27,4.1,1.75,7.73,5.51,7.73,11.49,0,9.14-7.32,14.18-17.34,14.18h-19.82v-47.04Zm18.48,17.34c3.76,0,5.31-1.61,5.31-4.03s-1.55-4.03-5.58-4.03h-6.45v8.06h6.72Zm.47,19.49c5.04,0,7.06-1.61,7.06-4.7s-2.02-4.84-7.06-4.84h-7.19v9.54h7.19Z"/><path class="cls-2" d="M263.89,263.79c0-13.84,10.42-24.06,24.53-24.06s24.33,10.21,24.33,24.06-10.35,24.06-24.33,24.06-24.53-10.21-24.53-24.06Zm24.46,13.84c7.26,0,12.43-5.91,12.43-13.84s-5.17-13.84-12.43-13.84-12.5,5.91-12.5,13.84,5.17,13.84,12.5,13.84Z"/><path class="cls-2" d="M326.18,263.93l-13.98-23.65h12.37l7.93,13.17,7.86-13.17h12.43l-14.04,23.72,13.98,23.32h-12.63l-7.59-12.83-7.59,12.83h-12.7l13.98-23.38Z"/></g></svg>