<svg xmlns="http://www.w3.org/2000/svg" width="125.673" height="125.673" viewBox="0 0 125.673 125.673">
  <rect id="Rectangle_94" data-name="Rectangle 94" width="61.88" height="61.88" transform="translate(0 125.359) rotate(-89.71)" fill="#00c843"/>
  <path id="Path_20" data-name="Path 20" d="M75,66.89a11.33,11.33,0,0,1,4.69,1,35.4,35.4,0,0,1-17-17.17,11.23,11.23,0,0,1,1,4.7A11.38,11.38,0,0,1,52.21,66.77l11.38.06L63.53,78.2A11.37,11.37,0,0,1,75,66.89" transform="translate(-3.758 -1.968)" fill="#00c843"/>
  <path id="Path_21" data-name="Path 21" d="M129.93,36.26A35.24,35.24,0,1,1,94.87.88a35.24,35.24,0,0,1,35.06,35.38" transform="translate(-4.258 -0.88)" fill="#00c843"/>
</svg>
