<svg id="Layer_1" data-name="Layer 1" xmlns="http://www.w3.org/2000/svg" viewBox="0 0 444.55 444.55"><path d="M401.48,217.09v100.8a33.64,33.64,0,0,1-33.61,33.61H76.67a33.64,33.64,0,0,1-33.6-33.61V217.09a11.2,11.2,0,1,1,22.39,0v100.8a11.23,11.23,0,0,0,11.2,11.2h291.2a11.23,11.23,0,0,0,11.2-11.2V217.09a11.2,11.2,0,1,1,22.39,0Zm-227.3-81.7,36.9-36.85V273.09a11.2,11.2,0,0,0,22.4,0V98.54l36.9,36.9a11.37,11.37,0,0,0,7.9,3.25,11.23,11.23,0,0,0,7.9-19.15l-56-56a11.22,11.22,0,0,0-15.85,0l-56,56a11.21,11.21,0,1,0,15.85,15.85Z"/></svg>