<?xml version="1.0" encoding="UTF-8"?><svg id="Laag_1" xmlns="http://www.w3.org/2000/svg" viewBox="0 0 106.13 115"><defs><style>.cls-1{fill:#031037;}</style></defs><g><path class="cls-1" d="M36.2,30.53h2.26l2.99,8.65,3.01-8.65h2.26l-4.17,11.41h-2.17l-4.19-11.41h.01Z"/><path class="cls-1" d="M57.8,34.58v7.36h-2.2v-1.86c-.54,1.22-1.99,2.04-3.71,2.04-2.33,0-3.87-1.4-3.87-3.44,0-2.2,1.74-3.56,4.44-3.56h2.38c.52,0,.77-.27,.77-.68,0-1.38-1-2.33-2.76-2.33-1.59,0-2.74,1-2.81,2.15h-2.04c.18-2.24,2.22-3.92,4.91-3.92,2.94,0,4.89,1.7,4.89,4.23h0Zm-2.2,2.37v-.27h-2.94c-1.49,0-2.47,.77-2.47,1.97,0,1.04,.86,1.74,2.13,1.74,2.08,0,3.28-1.34,3.28-3.44Z"/><path class="cls-1" d="M60.84,30.53h2.2v2.02c.61-1.43,1.97-2.2,3.67-2.2,2.58,0,4.26,1.86,4.26,4.57v7.02h-2.2v-6.59c0-1.81-1.06-3.03-2.67-3.03-1.79,0-3.06,1.45-3.06,3.44v6.18h-2.2v-11.41h0Z"/></g><g><path class="cls-1" d="M80,54.24c-1.18-1.06-1.86-2.66-2-4.61h-7.13c.06,1.46,.3,2.86,.72,4.18,.72,2.26,1.99,4.24,3.66,5.74,1.65,1.47,3.63,2.46,5.88,2.93,.97,.2,1.96,.3,2.98,.3h2.27v-7.12h-2.26c-1.66,0-3.09-.48-4.13-1.41"/><path class="cls-1" d="M66.39,57.19c-8.64,0-19.67,1.9-16.84,27.13h7.75c-.3-3.27-.51-5.96-.53-8.59,0-7.5,1.89-11.85,9.51-11.54l1.56,.06v-6.98c-.51-.06-1.29-.08-1.45-.08"/><path class="cls-1" d="M86.39,76.4c-1.39,.7-3.11,1.09-4.3,1.09-2.23,0-3.4-.71-3.85-3.41-.34-2.01-.46-6.12-.08-9.83h-7.41c-.36,4.42-.38,7.15,.19,11.01,.91,6.1,4.58,9.44,10.74,9.4,2.24-.01,4.17-.46,6.89-1.89l-2.2-6.37h.02Z"/><path class="cls-1" d="M33.96,78.17c1.09-2.86,2.04-5.57,3.03-8.53,1.36-4.06,2.78-8.43,3.84-12.36h8.22c-1.44,4.51-3.01,9.03-4.75,13.61-1.74,4.59-3.42,9.07-5.43,13.44h-10.12c-2.01-4.37-3.69-8.85-5.43-13.44-1.74-4.59-3.32-9.1-4.75-13.61h8.22c1.06,3.93,2.48,8.31,3.84,12.36,.99,2.96,1.94,5.67,3.03,8.53h.3Z"/></g></svg>